<?xml version="1.0" encoding="UTF-8" standalone="no"?>
<!DOCTYPE svg PUBLIC "-//W3C//DTD SVG 1.1//EN" "http://www.w3.org/Graphics/SVG/1.1/DTD/svg11.dtd">
<svg width="100%" height="100%" viewBox="0 0 11765 1746" version="1.1" xmlns="http://www.w3.org/2000/svg" xmlns:xlink="http://www.w3.org/1999/xlink" xml:space="preserve" xmlns:serif="http://www.serif.com/" style="fill-rule:evenodd;clip-rule:evenodd;stroke-linejoin:round;stroke-miterlimit:2;">
    <g id="Artboard1" transform="matrix(0.91964,0,0,0.521037,0,0)">
        <rect x="0" y="0" width="12792.502" height="3350.991" style="fill:none;"/>
        <clipPath id="_clip1">
            <rect x="0" y="0" width="12792.502" height="3350.991"/>
        </clipPath>
        <g clip-path="url(#_clip1)">
            <g id="Wordmark-3-no-bg" serif:id="Wordmark 3 no bg" transform="matrix(1.087382,0,0,1.919249,416.46712,-1871.267507)">
                <rect x="0.002" y="0.001" width="12792.5" height="3350.99" style="fill:none;"/>
            </g>
            <g transform="matrix(0.337956,0,0,0.596498,901.803098,1766.611657)">
                <g transform="matrix(1,0,0,1,-3122,-3121)">
                    <rect id="lOGO-VECTOR" serif:id="lOGO VECTOR" x="2.033" y="0.295" width="6241.33" height="6241.33" style="fill:none;"/>
                    <g id="FINAL-LOGO" serif:id="FINAL LOGO">
                        <path d="M3657,1882.04C3779.351,1919.464 3896.284,1969.418 4006.265,2030.394L4006.265,607.324L4477.973,607.324C4738.132,607.324 4949.031,818.223 4949.031,1078.382L4949.031,5455.182L4477.915,5455.182C4294.559,5455.182 4135.641,5350.555 4057.602,5197.739C3784.126,5361.192 3464.3,5455.182 3122.695,5455.182C2114.715,5455.182 1296.355,4636.829 1296.355,3628.842C1296.355,2800.986 1848.362,2101.042 2604.195,1877.282C2286.51,2464.127 1942.297,3198.632 1942.297,3626.162C1942.297,4281.293 2474.18,4813.182 3129.317,4813.182C3784.448,4813.182 4316.327,4281.298 4316.327,3626.162C4316.327,3199.818 3974.029,2468.212 3657,1882.032L3657,1882.04Z" style="fill:rgb(0,255,207);"/>
                        <path d="M2915.35,1927.88C2958.763,1849.324 3041.429,1800.56 3131.183,1800.56C3220.936,1800.56 3303.602,1849.324 3347.016,1927.879C3608.585,2401.39 4014.753,3204.579 4014.753,3626.419C4014.753,4114.075 3618.838,4509.989 3131.183,4509.989C2643.527,4509.989 2247.613,4114.075 2247.613,3626.419C2247.613,3204.577 2653.781,2401.389 2915.35,1927.879L2915.35,1927.88ZM3131.183,3023.13C2796.877,3023.13 2525.462,3294.544 2525.462,3628.85C2525.462,3963.156 2796.877,4234.571 3131.183,4234.571C3465.489,4234.571 3736.903,3963.156 3736.903,3628.85C3736.903,3294.544 3465.489,3023.13 3131.183,3023.13Z" style="fill:rgb(0,255,207);"/>
                        <circle cx="3131.18" cy="3628.84" r="304.426" style="fill:rgb(0,255,207);"/>
                    </g>
                </g>
            </g>
            <g transform="matrix(1.087382,0,0,1.919249,416.46712,-1871.267507)">
                <g>
                    <path d="M1706.35,2011.57C1806.32,2011.57 1878.826,1980.535 1923.867,1918.466C1968.909,1856.397 1991.43,1763.293 1991.43,1639.154C1991.43,1577.634 1985.937,1524.902 1974.951,1480.96C1963.965,1437.017 1946.113,1401.038 1921.396,1373.025C1896.678,1345.011 1865.094,1324.688 1826.644,1312.054C1788.194,1299.421 1741.504,1293.104 1686.576,1293.104L1516.846,1293.104L1516.846,2011.57L1706.35,2011.57ZM1294.385,2197.778L1294.385,1103.598L1717.885,1103.598C1791.489,1103.598 1859.601,1115.957 1922.219,1140.675C1984.838,1165.393 2038.393,1200.822 2082.886,1246.962C2127.378,1293.102 2162.258,1349.129 2187.525,1415.043C2212.792,1480.958 2225.425,1555.661 2225.425,1639.152C2225.425,1722.643 2214.165,1798.72 2191.644,1867.38C2169.124,1936.041 2136.99,1994.815 2095.245,2043.701C2053.499,2092.588 2003.514,2130.488 1945.289,2157.403C1887.065,2184.318 1822.799,2197.776 1752.49,2197.776L1294.385,2197.776L1294.385,2197.778Z" style="fill:rgb(0,255,207);fill-rule:nonzero;"/>
                    <path d="M2825.24,1713.31C2824.141,1683.648 2818.923,1657.557 2809.585,1635.036C2800.247,1612.516 2787.888,1593.84 2772.508,1579.009C2757.128,1564.178 2739.551,1553.193 2719.777,1546.052C2700.003,1538.911 2679.679,1535.341 2658.806,1535.341C2615.962,1535.341 2578.885,1550.996 2547.576,1582.305C2516.266,1613.614 2498.415,1657.282 2494.02,1713.31L2825.24,1713.31ZM2487.429,1848.434C2490.725,1909.954 2508.576,1958.841 2540.984,1995.093C2573.392,2031.346 2615.962,2049.473 2668.693,2049.473C2703.848,2049.473 2734.882,2041.508 2761.797,2025.579C2788.712,2009.649 2806.015,1987.403 2813.705,1958.841L3034.518,1958.841C3009.251,2042.332 2965.308,2106.598 2902.689,2151.64C2840.071,2196.681 2765.368,2219.202 2678.58,2219.202C2408.332,2219.202 2273.207,2071.993 2273.207,1777.576C2273.207,1714.958 2281.996,1658.381 2299.573,1607.847C2317.15,1557.312 2342.692,1513.919 2376.198,1477.666C2409.705,1441.413 2450.627,1413.674 2498.964,1394.449C2547.301,1375.224 2602.779,1365.612 2665.398,1365.612C2790.635,1365.612 2885.387,1405.709 2949.653,1485.905C3013.92,1566.101 3046.053,1686.944 3046.053,1848.434L2487.429,1848.434Z" style="fill:rgb(0,255,207);fill-rule:nonzero;"/>
                    <path d="M3599.73,1632.56C3594.237,1595.208 3580.231,1568.018 3557.71,1550.991C3535.189,1533.963 3500.859,1525.449 3454.719,1525.449C3410.776,1525.449 3377.544,1530.667 3355.023,1541.103C3332.503,1551.54 3321.242,1569.392 3321.242,1594.659C3321.242,1616.63 3332.503,1634.207 3355.023,1647.39C3377.544,1660.573 3410.227,1673.207 3453.071,1685.291C3523.379,1705.065 3582.702,1721.819 3631.04,1735.551C3679.377,1749.283 3718.101,1765.487 3747.214,1784.163C3776.326,1802.838 3797.199,1826.183 3809.832,1854.197C3822.466,1882.21 3828.783,1919.836 3828.783,1967.075C3828.783,2039.581 3798.572,2099.727 3738.15,2147.515C3677.729,2195.303 3588.195,2219.197 3469.549,2219.197C3411.325,2219.197 3358.594,2212.606 3311.355,2199.423C3264.116,2186.24 3223.744,2167.29 3190.237,2142.572C3156.731,2117.854 3130.915,2088.192 3112.788,2053.587C3094.662,2018.982 3085.049,1980.258 3083.951,1937.413L3304.764,1937.413C3304.764,1975.863 3319.869,2005.525 3350.08,2026.398C3380.29,2047.271 3419.564,2057.707 3467.902,2057.707C3508.549,2057.707 3543.428,2051.39 3572.541,2038.757C3601.653,2026.123 3616.209,2006.623 3616.209,1980.258C3616.209,1950.596 3605.498,1929.174 3584.076,1915.991C3562.653,1902.808 3529.971,1891.273 3486.028,1881.386C3406.931,1863.809 3343.214,1845.408 3294.876,1826.183C3246.539,1806.958 3208.913,1785.81 3181.998,1762.74C3155.083,1739.67 3136.957,1714.403 3127.619,1686.939C3118.281,1659.475 3113.612,1628.715 3113.612,1594.659C3113.612,1563.899 3119.929,1534.787 3132.562,1507.322C3145.196,1479.858 3165.245,1455.689 3192.709,1434.817C3220.174,1413.944 3255.877,1397.19 3299.82,1384.557C3343.763,1371.923 3397.593,1365.607 3461.31,1365.607C3577.759,1365.607 3662.898,1389.226 3716.728,1436.464C3770.558,1483.703 3800.22,1549.068 3805.713,1632.56L3599.73,1632.56Z" style="fill:rgb(0,255,207);fill-rule:nonzero;"/>
                    <path d="M3886.46,2197.78L3886.46,1387.034L4100.681,1387.034L4100.681,2197.78L3886.46,2197.78ZM3886.46,1289.81L3886.46,1090.419L4100.681,1090.419L4100.681,1289.81L3886.46,1289.81Z" style="fill:rgb(0,255,207);fill-rule:nonzero;"/>
                    <path d="M4580.21,2051.42C4632.941,2051.42 4676.61,2030.918 4711.215,1989.916C4745.82,1948.913 4763.122,1893.025 4763.122,1822.253C4763.122,1644.761 4702.151,1556.015 4580.21,1556.015C4458.268,1556.015 4397.298,1640.268 4397.298,1808.773C4397.298,1882.915 4414.6,1941.892 4449.205,1985.703C4483.81,2029.514 4527.478,2051.42 4580.21,2051.42ZM4756.531,2105.341C4741.151,2142.413 4713.412,2171.339 4673.314,2192.122C4633.216,2212.904 4586.801,2223.295 4534.07,2223.295C4467.057,2223.295 4410.755,2211.219 4365.164,2187.066C4319.574,2162.914 4282.772,2131.179 4254.758,2091.861C4226.744,2052.543 4206.421,2007.047 4193.787,1955.372C4181.154,1903.697 4174.837,1850.899 4174.837,1796.977C4174.837,1732.945 4184.175,1674.25 4202.85,1620.89C4221.526,1567.53 4246.793,1522.033 4278.652,1484.401C4310.51,1446.768 4347.862,1417.56 4390.706,1396.778C4433.551,1375.996 4479.691,1365.605 4529.126,1365.605C4630.195,1365.605 4705.996,1407.169 4756.531,1490.298L4756.531,1387.51L4970.752,1387.51L4970.752,2224.98C4970.752,2287.889 4960.316,2343.214 4939.443,2390.957C4918.57,2438.7 4890.007,2478.58 4853.754,2510.596C4817.502,2542.612 4774.657,2567.045 4725.221,2583.896C4675.786,2600.746 4623.054,2609.171 4567.027,2609.171C4511,2609.171 4458.818,2601.027 4410.481,2584.738C4362.143,2568.449 4320.672,2545.42 4286.067,2515.651C4251.462,2485.882 4224.273,2449.653 4204.498,2406.965C4184.724,2364.277 4174.837,2315.973 4174.837,2262.051L4374.228,2262.051C4374.228,2312.603 4390.432,2351.64 4422.839,2379.162C4455.247,2406.685 4498.366,2420.446 4552.196,2420.446C4609.322,2420.446 4657.659,2404.438 4697.208,2372.422C4736.756,2340.406 4756.531,2296.875 4756.531,2241.831L4756.531,2105.341Z" style="fill:rgb(0,255,207);fill-rule:nonzero;"/>
                    <path d="M5575.52,2197.78L5575.52,1706.718C5575.52,1644.1 5565.084,1601.805 5544.211,1579.833C5523.338,1557.862 5487.635,1546.876 5437.1,1546.876C5326.144,1546.876 5270.667,1608.945 5270.667,1733.084L5270.667,2197.78L5056.445,2197.78L5056.445,1387.034L5260.779,1387.034L5260.779,1505.68C5286.047,1459.539 5319.553,1424.66 5361.299,1401.04C5403.045,1377.421 5456.875,1365.612 5522.789,1365.612C5561.239,1365.612 5596.943,1371.379 5629.9,1382.914C5662.857,1394.449 5691.145,1411.752 5714.764,1434.822C5738.384,1457.892 5757.059,1486.18 5770.792,1519.686C5784.524,1553.193 5791.39,1591.917 5791.39,1635.86L5791.39,2197.78L5575.52,2197.78Z" style="fill:rgb(0,255,207);fill-rule:nonzero;"/>
                    <rect x="6279.15" y="1103.6" width="229.052" height="1094.18" style="fill:rgb(0,255,207);"/>
                    <path d="M7106.38,2197.78L7106.38,1706.718C7106.38,1644.1 7095.943,1601.805 7075.07,1579.833C7054.198,1557.862 7018.494,1546.876 6967.96,1546.876C6857.004,1546.876 6801.526,1608.945 6801.526,1733.084L6801.526,2197.78L6587.304,2197.78L6587.304,1387.034L6791.639,1387.034L6791.639,1505.68C6816.906,1459.539 6850.412,1424.66 6892.158,1401.04C6933.904,1377.421 6987.734,1365.612 7053.648,1365.612C7092.098,1365.612 7127.802,1371.379 7160.759,1382.914C7193.716,1394.449 7222.004,1411.752 7245.624,1434.822C7269.243,1457.892 7287.919,1486.18 7301.651,1519.686C7315.383,1553.193 7322.249,1591.917 7322.249,1635.86L7322.249,2197.78L7106.38,2197.78Z" style="fill:rgb(0,255,207);fill-rule:nonzero;"/>
                    <path d="M7927.01,2197.78L7927.01,1706.718C7927.01,1644.1 7916.574,1601.805 7895.701,1579.833C7874.828,1557.862 7839.124,1546.876 7788.59,1546.876C7677.634,1546.876 7622.156,1608.945 7622.156,1733.084L7622.156,2197.78L7407.935,2197.78L7407.935,1387.034L7612.269,1387.034L7612.269,1505.68C7637.536,1459.539 7671.043,1424.66 7712.789,1401.04C7754.534,1377.421 7808.364,1365.612 7874.279,1365.612C7912.729,1365.612 7948.432,1371.379 7981.389,1382.914C8014.347,1394.449 8042.635,1411.752 8066.254,1434.822C8089.874,1457.892 8108.549,1486.18 8122.281,1519.686C8136.014,1553.193 8142.88,1591.917 8142.88,1635.86L8142.88,2197.78L7927.01,2197.78Z" style="fill:rgb(0,255,207);fill-rule:nonzero;"/>
                    <path d="M8716.33,1632.56C8710.837,1595.208 8696.831,1568.018 8674.31,1550.991C8651.789,1533.963 8617.459,1525.449 8571.319,1525.449C8527.376,1525.449 8494.144,1530.667 8471.623,1541.103C8449.103,1551.54 8437.842,1569.392 8437.842,1594.659C8437.842,1616.63 8449.103,1634.207 8471.623,1647.39C8494.144,1660.573 8526.827,1673.207 8569.671,1685.291C8639.98,1705.065 8699.302,1721.819 8747.64,1735.551C8795.977,1749.283 8834.701,1765.487 8863.814,1784.163C8892.926,1802.838 8913.799,1826.183 8926.432,1854.197C8939.066,1882.21 8945.383,1919.836 8945.383,1967.075C8945.383,2039.581 8915.172,2099.727 8854.75,2147.515C8794.329,2195.303 8704.795,2219.197 8586.149,2219.197C8527.925,2219.197 8475.194,2212.606 8427.955,2199.423C8380.717,2186.24 8340.344,2167.29 8306.838,2142.572C8273.331,2117.854 8247.515,2088.192 8229.388,2053.587C8211.262,2018.982 8201.649,1980.258 8200.551,1937.413L8421.364,1937.413C8421.364,1975.863 8436.469,2005.525 8466.68,2026.398C8496.891,2047.271 8536.164,2057.707 8584.502,2057.707C8625.149,2057.707 8660.028,2051.39 8689.141,2038.757C8718.253,2026.123 8732.809,2006.623 8732.809,1980.258C8732.809,1950.596 8722.098,1929.174 8700.676,1915.991C8679.253,1902.808 8646.571,1891.273 8602.628,1881.386C8523.531,1863.809 8459.814,1845.408 8411.477,1826.183C8363.139,1806.958 8325.513,1785.81 8298.598,1762.74C8271.683,1739.67 8253.557,1714.403 8244.219,1686.939C8234.881,1659.475 8230.212,1628.715 8230.212,1594.659C8230.212,1563.899 8236.529,1534.787 8249.162,1507.322C8261.796,1479.858 8281.845,1455.689 8309.309,1434.817C8336.774,1413.944 8372.477,1397.19 8416.42,1384.557C8460.363,1371.923 8514.193,1365.607 8577.91,1365.607C8694.359,1365.607 8779.498,1389.226 8833.328,1436.464C8887.158,1483.703 8916.82,1549.068 8922.313,1632.56L8716.33,1632.56Z" style="fill:rgb(0,255,207);fill-rule:nonzero;"/>
                    <path d="M9705.05,1848.43C9708.346,1909.95 9726.198,1958.837 9758.606,1995.089C9791.014,2031.342 9833.583,2049.469 9886.315,2049.469C9921.469,2049.469 9952.504,2041.504 9979.419,2025.575C10006.334,2009.645 10023.636,1987.399 10031.326,1958.837L10252.139,1958.837C10226.872,2042.328 10182.929,2106.594 10120.311,2151.636C10057.692,2196.677 9982.989,2219.198 9896.202,2219.198C9834.682,2219.198 9775.084,2209.311 9717.409,2189.537C9659.734,2169.762 9610.573,2134.059 9569.926,2082.426C9530.377,2128.566 9485.061,2162.896 9433.978,2185.417C9382.894,2207.938 9320.55,2219.198 9246.946,2219.198C9153.567,2219.198 9085.181,2198.6 9041.787,2157.403C8998.394,2116.207 8976.697,2062.652 8976.697,1996.737C8976.697,1938.513 8986.035,1892.098 9004.711,1857.493C9023.386,1822.888 9049.203,1795.699 9082.16,1775.924C9115.117,1756.15 9154.391,1741.594 9199.982,1732.256C9245.572,1722.918 9295.283,1714.404 9349.113,1706.714C9402.943,1699.024 9439.196,1688.862 9457.872,1676.229C9476.547,1663.595 9485.885,1642.997 9485.885,1614.434C9485.885,1588.068 9473.526,1567.47 9448.808,1552.639C9424.09,1537.809 9390.859,1530.393 9349.113,1530.393C9299.677,1530.393 9264.248,1541.379 9242.826,1563.351C9221.404,1585.322 9207.946,1614.434 9202.453,1650.687L9003.063,1650.687C9004.161,1608.941 9011.027,1570.491 9023.661,1535.337C9036.294,1500.183 9056.618,1469.972 9084.632,1444.705C9112.645,1419.438 9149.173,1399.938 9194.214,1386.206C9239.256,1372.474 9294.184,1365.608 9359,1365.608C9422.717,1365.608 9476.273,1372.474 9519.666,1386.206C9563.06,1399.938 9598.489,1420.536 9625.953,1448C9694.065,1393.072 9779.753,1365.608 9883.019,1365.608C10008.256,1365.608 10103.008,1405.705 10167.275,1485.901C10231.541,1566.097 10263.674,1686.94 10263.674,1848.43L9705.05,1848.43ZM9490.829,1800.642C9479.843,1811.628 9463.914,1820.416 9443.041,1827.008C9422.168,1833.599 9391.957,1840.74 9352.409,1848.43C9290.889,1860.514 9248.594,1875.894 9225.524,1894.57C9202.453,1913.246 9190.918,1940.161 9190.918,1975.315C9190.918,2035.737 9225.524,2065.947 9294.734,2065.947C9322.198,2065.947 9347.74,2061.278 9371.359,2051.941C9394.978,2042.603 9415.302,2029.969 9432.33,2014.04C9449.358,1998.11 9463.09,1979.435 9473.526,1958.013C9483.963,1936.59 9489.181,1913.795 9489.181,1889.626L9490.829,1800.642ZM10042.861,1713.306C10041.763,1683.644 10036.544,1657.553 10027.207,1635.032C10017.869,1612.512 10005.51,1593.836 9990.13,1579.005C9974.75,1564.174 9957.173,1553.189 9937.398,1546.048C9917.624,1538.907 9897.3,1535.337 9876.428,1535.337C9833.583,1535.337 9796.506,1550.992 9765.197,1582.301C9733.888,1613.61 9716.036,1657.278 9711.642,1713.306L10042.861,1713.306Z" style="fill:rgb(255,0,108);fill-rule:nonzero;"/>
                    <path d="M10331.2,2197.78L10331.2,1387.034L10545.422,1387.034L10545.422,2197.78L10331.2,2197.78ZM10331.2,1289.81L10331.2,1090.419L10545.422,1090.419L10545.422,1289.81L10331.2,1289.81Z" style="fill:rgb(0,255,207);fill-rule:nonzero;"/>
                    <path d="M11095.8,1663.87L11295.191,1663.87L11295.191,1894.57C11295.191,1937.414 11288.874,1978.336 11276.24,2017.336C11263.607,2056.335 11243.832,2090.94 11216.917,2121.151C11190.002,2151.361 11155.947,2175.255 11114.75,2192.832C11073.554,2210.41 11024.393,2219.198 10967.267,2219.198C10907.944,2219.198 10857.41,2210.41 10815.664,2192.832C10773.918,2175.255 10739.588,2151.636 10712.673,2121.975C10685.758,2092.313 10666.258,2057.708 10654.174,2018.159C10642.089,1978.611 10636.047,1936.865 10636.047,1892.922L10636.047,1167.865L10846.973,1167.865L10846.973,1387.03L11295.191,1387.03L11295.191,1538.633L10846.973,1538.633L10846.973,1871.5C10846.973,1923.133 10856.586,1962.956 10875.811,1990.97C10895.036,2018.983 10926.62,2032.99 10970.562,2032.99C11013.407,2032.99 11044.991,2019.258 11065.314,1991.794C11085.638,1964.329 11095.8,1925.33 11095.8,1874.796L11095.8,1663.87Z" style="fill:rgb(0,255,207);fill-rule:nonzero;"/>
                </g>
            </g>
            <g transform="matrix(0.920627,0,0,1.624924,632.902066,-1099.534896)">
                <g transform="matrix(388.100886,0,0,388.100886,4632.101033,2617)">
                </g>
                <text x="1289px" y="2617px" style="font-family:'CoolveticaRg-Regular', 'Coolvetica', sans-serif;font-size:388.101px;fill:rgb(0,255,207);">Essence<tspan x="2613.2px " y="2617px ">.</tspan>Made Visual.</text>
            </g>
        </g>
    </g>
</svg>
