<?xml version="1.0" encoding="UTF-8" standalone="no"?><!DOCTYPE svg PUBLIC "-//W3C//DTD SVG 1.1//EN" "http://www.w3.org/Graphics/SVG/1.1/DTD/svg11.dtd"><svg width="100%" height="100%" viewBox="0 0 15824 2305" version="1.1" xmlns="http://www.w3.org/2000/svg" xmlns:xlink="http://www.w3.org/1999/xlink" xml:space="preserve" xmlns:serif="http://www.serif.com/" style="fill-rule:evenodd;clip-rule:evenodd;stroke-linejoin:round;stroke-miterlimit:2;"><rect id="Artboard4" x="0" y="0" width="15824" height="2305" style="fill:none;"/><clipPath id="_clip1"><rect x="0" y="0" width="15824" height="2305"/></clipPath><g clip-path="url(#_clip1)"><rect id="Artboard3" x="0" y="0" width="15561" height="2304.99" style="fill:none;"/><g><g><g><g id="Wordmark-3-no-bg" serif:id="Wordmark 3 no bg"><rect x="383.505" y="-974.989" width="12792.5" height="3350.989" style="fill:none;"/></g><g><g><rect id="lOGO-VECTOR" serif:id="lOGO VECTOR" x="-139.842" y="-49.427" width="1939.792" height="1939.79" style="fill:none;"/><g id="FINAL-LOGO" serif:id="FINAL LOGO"><path d="M996.114,535.414c38.026,11.631 74.369,27.157 108.551,46.108l0,-442.287l146.606,0c80.857,0 146.404,65.547 146.404,146.404l0,1360.299l-146.422,0c-56.987,0 -106.378,-32.518 -130.632,-80.013c-84.996,50.801 -184.397,80.013 -290.567,80.013c-313.278,0 -567.623,-254.342 -567.623,-567.622c0,-257.296 171.563,-474.836 406.474,-544.381c-98.736,182.39 -205.716,410.672 -205.716,543.548c0,203.613 165.308,368.923 368.923,368.923c203.613,0 368.92,-165.308 368.92,-368.923c0,-132.507 -106.385,-359.888 -204.917,-542.071l0,0.002l-0.001,0Z" style="fill:#00ffcf;"/><path d="M765.611,549.661c13.493,-24.415 39.185,-39.571 67.08,-39.571c27.895,0 53.587,15.156 67.08,39.57c81.295,147.166 207.531,396.795 207.531,527.902c0,151.562 -123.05,274.611 -274.612,274.611c-151.562,0 -274.612,-123.049 -274.612,-274.611c0,-131.107 126.236,-380.736 207.531,-527.902l0.002,0.001Zm67.08,340.401c-103.902,0 -188.257,84.355 -188.257,188.256c0,103.901 84.355,188.257 188.257,188.257c103.902,0 188.256,-84.355 188.256,-188.257c0,-103.901 -84.355,-188.256 -188.256,-188.256Z" style="fill:#00ffcf;"/><circle cx="832.69" cy="1078.315" r="94.615" style="fill:#00ffcf;"/></g></g></g><g><g><path d="M2400.452,1384.499c137.729,0 237.62,-42.757 299.673,-128.269c62.054,-85.512 93.082,-213.782 93.082,-384.808c0,-84.756 -7.568,-157.405 -22.703,-217.944c-15.135,-60.54 -39.73,-110.109 -73.783,-148.702c-34.054,-38.595 -77.567,-66.594 -130.54,-84c-52.973,-17.404 -117.297,-26.107 -192.972,-26.107l-233.837,0l0,989.831l261.08,0l0,-0.001Zm-567.564,256.539l0,-1507.452l583.456,0c101.404,0 195.242,17.027 281.511,51.081c86.27,34.054 160.053,82.865 221.351,146.432c61.297,63.567 109.351,140.755 144.161,231.565c34.81,90.811 52.215,193.729 52.215,308.755c0,115.026 -15.513,219.837 -46.54,314.43c-31.026,94.594 -75.297,175.567 -132.809,242.917c-57.513,67.352 -126.378,119.566 -206.594,156.647c-80.215,37.081 -168.754,55.622 -265.619,55.622l-631.131,0l0,0.003l-0.001,0Z" style="fill:#00ffcf;fill-rule:nonzero;"/><path d="M3941.947,973.586c-1.514,-40.865 -8.703,-76.811 -21.568,-107.838c-12.865,-31.026 -29.892,-56.756 -51.081,-77.188c-21.189,-20.433 -45.405,-35.567 -72.648,-45.405c-27.243,-9.838 -55.243,-14.757 -84,-14.757c-59.026,0 -110.107,21.568 -153.242,64.702c-43.136,43.134 -67.729,103.296 -73.784,180.486l456.323,-0Zm-465.402,186.16c4.541,84.756 29.134,152.108 73.783,202.052c44.649,49.946 103.297,74.919 175.945,74.919c48.433,0 91.189,-10.973 128.269,-32.919c37.081,-21.947 60.919,-52.595 71.514,-91.945l304.214,0c-34.81,115.026 -95.351,203.565 -181.621,265.619c-86.269,62.053 -189.187,93.08 -308.755,93.08c-372.321,0 -558.482,-202.81 -558.482,-608.428c0,-86.269 12.109,-164.215 36.324,-233.836c24.216,-69.622 59.405,-129.405 105.566,-179.35c46.163,-49.946 102.541,-88.162 169.135,-114.648c66.594,-26.486 143.026,-39.729 229.296,-39.729c172.539,0 303.079,55.242 391.618,165.728c88.541,110.486 132.81,276.971 132.81,499.456l-769.616,0l0,0.001Z" style="fill:#00ffcf;fill-rule:nonzero;"/><path d="M5008.962,862.337c-7.568,-51.46 -26.864,-88.92 -57.891,-112.378c-31.027,-23.459 -78.324,-35.189 -141.891,-35.189c-60.54,0 -106.324,7.189 -137.351,21.567c-31.026,14.379 -46.54,38.974 -46.54,73.784c0,30.269 15.514,54.485 46.54,72.648c31.027,18.162 76.055,35.568 135.081,52.216c96.863,27.243 178.593,50.325 245.188,69.243c66.594,18.919 119.944,41.243 160.053,66.973c40.108,25.729 68.864,57.891 86.269,96.486c17.406,38.594 26.109,90.431 26.109,155.512c0,99.892 -41.622,182.755 -124.865,248.592c-83.242,65.838 -206.593,98.756 -370.052,98.756c-80.215,0 -152.863,-9.08 -217.944,-27.243c-65.081,-18.162 -120.702,-44.27 -166.864,-78.324c-46.161,-34.054 -81.728,-74.919 -106.701,-122.595c-24.972,-47.675 -38.216,-101.025 -39.729,-160.053l304.214,0c0,52.973 20.81,93.838 62.432,122.595c41.62,28.757 95.728,43.134 162.323,43.134c55.999,0 104.052,-8.703 144.161,-26.107c40.108,-17.406 60.161,-44.271 60.161,-80.594c0,-40.865 -14.757,-70.378 -44.27,-88.541c-29.514,-18.162 -74.54,-34.054 -135.081,-47.675c-108.972,-24.216 -196.755,-49.567 -263.35,-76.053c-66.594,-26.486 -118.431,-55.622 -155.512,-87.405c-37.081,-31.784 -62.053,-66.594 -74.918,-104.431c-12.865,-37.837 -19.297,-80.215 -19.297,-127.134c0,-42.378 8.703,-82.486 26.107,-120.324c17.406,-37.837 45.027,-71.135 82.865,-99.89c37.839,-28.757 87.027,-51.839 147.567,-69.243c60.54,-17.406 134.702,-26.107 222.485,-26.107c160.432,0 277.728,32.54 351.889,97.62c74.162,65.081 115.027,155.135 122.595,270.161l-283.783,0l-0,-0.001Z" style="fill:#00ffcf;fill-rule:nonzero;"/><path d="M5403.99,1641.04l0,-1116.965l295.132,0l0,1116.965l-295.132,0Zm0,-1250.91l0,-274.701l295.132,0l0,274.701l-295.132,0Z" style="fill:#00ffcf;fill-rule:nonzero;"/><path d="M6359.77,1439.4c72.648,0 132.81,-28.246 180.486,-84.734c47.675,-56.49 71.512,-133.487 71.512,-230.989c0,-244.531 -84,-366.796 -251.998,-366.796c-168,0 -251.998,116.075 -251.998,348.225c0,102.145 23.837,183.398 71.512,243.756c47.675,60.358 107.837,90.538 180.486,90.538Zm242.917,74.287c-21.189,51.074 -59.405,90.925 -114.648,119.558c-55.243,28.631 -119.189,42.947 -191.836,42.947c-92.324,0 -169.891,-16.637 -232.702,-49.913c-62.809,-33.274 -113.511,-76.996 -152.106,-131.164c-38.595,-54.168 -66.594,-116.848 -84,-188.041c-17.404,-71.193 -26.107,-143.932 -26.107,-218.221c0,-88.217 12.865,-169.081 38.594,-242.595c25.73,-73.514 60.54,-136.195 104.432,-188.041c43.891,-51.847 95.351,-92.087 154.377,-120.718c59.028,-28.631 122.595,-42.947 190.701,-42.947c139.243,0 243.674,57.263 313.296,171.79l0,-141.611l295.132,0l0,1153.783c0,86.67 -14.378,162.891 -43.134,228.667c-28.757,65.776 -68.108,120.718 -118.054,164.827c-49.944,44.108 -108.972,77.77 -177.08,100.985c-68.107,23.214 -140.755,34.821 -217.944,34.821c-77.188,0 -149.08,-11.22 -215.673,-33.661c-66.595,-22.441 -123.73,-54.168 -171.405,-95.181c-47.675,-41.013 -85.134,-90.925 -112.378,-149.737c-27.243,-58.811 -40.864,-125.36 -40.864,-199.648l274.701,0c0,69.645 22.324,123.427 66.971,161.344c44.649,37.918 104.054,56.877 178.215,56.877c78.702,0 145.296,-22.054 199.783,-66.163c54.485,-44.108 81.729,-104.081 81.729,-179.915l-0,-188.043Z" style="fill:#00ffcf;fill-rule:nonzero;"/><path d="M7731.008,1641.041l0,-676.537c0,-86.269 -14.378,-144.539 -43.134,-174.809c-28.757,-30.269 -77.945,-45.405 -147.567,-45.405c-152.864,0 -229.295,85.512 -229.295,256.539l0,640.212l-295.134,0l0,-1116.965l281.511,0l0,163.459c34.812,-63.568 80.973,-111.621 138.486,-144.163c57.513,-32.54 131.675,-48.809 222.485,-48.809c52.973,0 102.162,7.945 147.567,23.837c45.405,15.892 84.377,39.73 116.917,71.514c32.541,31.784 58.27,70.756 77.19,116.917c18.919,46.163 28.378,99.513 28.378,160.053l0,774.157l-297.404,0Z" style="fill:#00ffcf;fill-rule:nonzero;"/><rect x="8700.4" y="133.588" width="315.565" height="1507.452" style="fill:#00ffcf;"/><path d="M9840.074,1641.041l-0,-676.537c0,-86.269 -14.379,-144.539 -43.136,-174.809c-28.755,-30.269 -77.945,-45.405 -147.565,-45.405c-152.864,0 -229.296,85.512 -229.296,256.539l0,640.212l-295.134,0l0,-1116.965l281.512,0l0,163.459c34.81,-63.568 80.972,-111.621 138.485,-144.163c57.513,-32.54 131.675,-48.809 222.485,-48.809c52.973,0 102.162,7.945 147.567,23.837c45.405,15.892 84.377,39.73 116.919,71.514c32.54,31.784 58.27,70.756 77.188,116.917c18.919,46.163 28.378,99.513 28.378,160.053l0,774.157l-297.403,0Z" style="fill:#00ffcf;fill-rule:nonzero;"/><path d="M10970.657,1641.041l-0,-676.537c0,-86.269 -14.378,-144.539 -43.134,-174.809c-28.757,-30.269 -77.946,-45.405 -147.567,-45.405c-152.864,0 -229.296,85.512 -229.296,256.539l0,640.212l-295.132,0l0,-1116.965l281.511,0l0,163.459c34.81,-63.568 80.973,-111.621 138.486,-144.163c57.512,-32.54 131.674,-48.809 222.485,-48.809c52.973,0 102.161,7.945 147.565,23.837c45.406,15.892 84.379,39.73 116.919,71.514c32.541,31.784 58.27,70.756 77.188,116.917c18.92,46.163 28.379,99.513 28.379,160.053l0,774.157l-297.404,0Z" style="fill:#00ffcf;fill-rule:nonzero;"/><path d="M12058.103,862.337c-7.568,-51.46 -26.864,-88.92 -57.891,-112.378c-31.027,-23.459 -78.324,-35.189 -141.891,-35.189c-60.54,0 -106.324,7.189 -137.351,21.567c-31.026,14.379 -46.54,38.974 -46.54,73.784c0,30.269 15.514,54.485 46.54,72.648c31.027,18.162 76.055,35.568 135.081,52.216c96.865,27.243 178.593,50.325 245.188,69.243c66.594,18.919 119.944,41.243 160.053,66.973c40.108,25.729 68.864,57.891 86.269,96.486c17.406,38.594 26.109,90.431 26.109,155.512c0,99.892 -41.622,182.755 -124.865,248.592c-83.242,65.838 -206.593,98.756 -370.052,98.756c-80.215,0 -152.863,-9.08 -217.944,-27.243c-65.08,-18.162 -120.702,-44.27 -166.863,-78.324c-46.163,-34.054 -81.729,-74.919 -106.703,-122.595c-24.972,-47.675 -38.216,-101.025 -39.729,-160.053l304.214,0c0,52.973 20.81,93.838 62.432,122.595c41.622,28.757 95.728,43.134 162.323,43.134c55.999,0 104.052,-8.703 144.161,-26.107c40.108,-17.406 60.161,-44.271 60.161,-80.594c0,-40.865 -14.757,-70.378 -44.27,-88.541c-29.514,-18.162 -74.54,-34.054 -135.081,-47.675c-108.972,-24.216 -196.755,-49.567 -263.349,-76.053c-66.595,-26.486 -118.433,-55.622 -155.513,-87.405c-37.081,-31.784 -62.053,-66.594 -74.918,-104.431c-12.865,-37.837 -19.297,-80.215 -19.297,-127.134c0,-42.378 8.703,-82.486 26.107,-120.324c17.406,-37.837 45.027,-71.135 82.865,-99.89c37.839,-28.757 87.027,-51.839 147.567,-69.243c60.54,-17.406 134.702,-26.107 222.485,-26.107c160.432,0 277.728,32.54 351.889,97.62c74.162,65.081 115.027,155.135 122.595,270.161l-283.783,0l0.001,-0.001Z" style="fill:#00ffcf;fill-rule:nonzero;"/><path d="M13420.262,1159.741c4.541,84.756 29.136,152.108 73.784,202.052c44.649,49.946 103.296,74.919 175.945,74.919c48.432,0 91.189,-10.973 128.269,-32.919c37.081,-21.947 60.918,-52.595 71.512,-91.945l304.214,0c-34.81,115.026 -95.351,203.565 -181.619,265.619c-86.27,62.053 -189.189,93.08 -308.755,93.08c-84.756,0 -166.864,-13.621 -246.323,-40.864c-79.459,-27.244 -147.188,-76.432 -203.187,-147.567c-54.487,63.567 -116.919,110.864 -187.296,141.891c-70.378,31.027 -156.27,46.54 -257.674,46.54c-128.648,0 -222.864,-28.378 -282.648,-85.135c-59.783,-56.756 -89.675,-130.538 -89.675,-221.35c0,-80.215 12.865,-144.161 38.595,-191.836c25.729,-47.675 61.297,-85.134 106.701,-112.378c45.405,-27.243 99.513,-47.296 162.323,-60.161c62.809,-12.865 131.296,-24.595 205.458,-35.189c74.162,-10.595 124.107,-24.595 149.837,-41.999c25.729,-17.406 38.594,-45.784 38.594,-85.135c0,-36.324 -17.027,-64.702 -51.081,-85.135c-34.054,-20.431 -79.836,-30.648 -137.35,-30.648c-68.108,0 -116.919,15.135 -146.432,45.406c-29.513,30.269 -48.054,70.377 -55.622,120.323l-274.7,0c1.513,-57.513 10.972,-110.486 28.378,-158.918c17.404,-48.432 45.405,-90.053 84,-124.864c38.594,-34.81 88.918,-61.676 150.971,-80.594c62.054,-18.919 137.729,-28.378 227.026,-28.378c87.783,0 161.567,9.459 221.35,28.378c59.784,18.919 108.594,47.296 146.432,85.134c93.838,-75.674 211.89,-113.511 354.16,-113.511c172.539,0 303.079,55.242 391.62,165.728c88.539,110.486 132.809,276.971 132.809,499.456l-769.616,0Zm-295.132,-65.838c-15.135,15.135 -37.081,27.243 -65.838,36.324c-28.757,9.08 -70.378,18.919 -124.864,29.513c-84.756,16.648 -143.026,37.837 -174.809,63.567c-31.785,25.73 -47.677,62.811 -47.677,111.242c0,83.243 47.677,124.864 143.027,124.864c37.837,0 73.026,-6.432 105.566,-19.296c32.54,-12.865 60.54,-30.271 84,-52.216c23.459,-21.947 42.378,-47.675 56.756,-77.188c14.379,-29.514 21.568,-60.919 21.568,-94.217l2.27,-122.593l0.001,0Zm760.535,-120.323c-1.513,-40.865 -8.703,-76.811 -21.567,-107.838c-12.865,-31.026 -29.892,-56.756 -51.081,-77.188c-21.189,-20.433 -45.405,-35.567 -72.649,-45.405c-27.243,-9.838 -55.243,-14.757 -83.998,-14.757c-59.028,0 -110.109,21.568 -153.243,64.702c-43.134,43.134 -67.729,103.296 -73.783,180.486l456.321,-0Z" style="fill:#ff006c;fill-rule:nonzero;"/><path d="M14282.909,1641.04l0,-1116.965l295.134,0l0,1116.965l-295.134,0Zm0,-1250.91l0,-274.701l295.134,0l0,274.701l-295.134,0Z" style="fill:#00ffcf;fill-rule:nonzero;"/><path d="M15336.299,905.473l274.701,0l0,317.835c0,59.026 -8.703,115.404 -26.109,169.135c-17.404,53.729 -44.649,101.404 -81.729,143.026c-37.081,41.62 -83.998,74.539 -140.755,98.755c-56.756,24.217 -124.485,36.324 -203.187,36.324c-81.729,0 -151.35,-12.107 -208.863,-36.324c-57.513,-24.216 -104.81,-56.756 -141.891,-97.62c-37.081,-40.865 -63.946,-88.541 -80.594,-143.027c-16.65,-54.485 -24.974,-111.999 -24.974,-172.539l0,-998.911l290.593,0l0,301.944l617.51,0l0,208.863l-617.51,0l0,458.591c0,71.135 13.244,125.999 39.73,164.594c26.486,38.594 70,57.891 130.538,57.891c59.028,0 102.541,-18.919 130.54,-56.756c28,-37.839 42.001,-91.567 42.001,-161.188l0,-290.593l-0.001,-0Z" style="fill:#00ffcf;fill-rule:nonzero;"/></g></g></g></g></g></g></svg>